<?xml version="1.0" encoding="utf-8"?>
<!-- Generator: Adobe Illustrator 19.0.1, SVG Export Plug-In . SVG Version: 6.00 Build 0)  -->
<svg version="1.1" id="Слой_1" xmlns="http://www.w3.org/2000/svg" xmlns:xlink="http://www.w3.org/1999/xlink" x="0px" y="0px"
	 viewBox="0 0 595.3 841.9" style="enable-background:new 0 0 595.3 841.9;" xml:space="preserve">
<style type="text/css">
	.st0{fill:#FFFFFF;}
</style>
<path class="st0" d="M314.2,450.7h-19.8c-2.2,0-3.9-1.8-3.9-4.1v-12.1h-11.6c-2.2,0-3.9-1.8-3.9-4.1v-20.7c0-2.3,1.8-4.1,3.9-4.1
	h11.6v-12.1c0-2.3,1.8-4.1,3.9-4.1h19.8c2.2,0,3.9,1.8,3.9,4.1v12.1h11.6c2.2,0,3.9,1.8,3.9,4.1v20.7c0,2.2-1.8,4.1-3.9,4.1h-11.6
	v12.1C318.1,448.9,316.3,450.7,314.2,450.7L314.2,450.7z"/>
<path class="st0" d="M371.4,379.2H237.1v-21c0-3.5,2.9-6.4,6.4-6.4H365c3.5,0,6.4,2.9,6.4,6.4V379.2z"/>
<path class="st0" d="M237.1,406.6v-48.4c0-3.5,2.9-6.4,6.4-6.4h21v48.4c0,3.5-2.9,6.4-6.4,6.4H237.1z"/>
<path class="st0" d="M237.1,462.7h134.3v21c0,3.5-2.9,6.4-6.4,6.4H243.5c-3.5,0-6.4-2.9-6.4-6.4V462.7z"/>
<path class="st0" d="M371.4,435.3v48.4c0,3.5-2.9,6.4-6.4,6.4h-21v-48.4c0-3.5,2.9-6.4,6.4-6.4H371.4z"/>
</svg>
